{
    "asset" : {
        "generator" : "Khronos glTF Blender I/O v1.0.5",
        "version" : "2.0"
    },
    "scene" : 0,
    "scenes" : [
        {
            "name" : "Scene",
            "nodes" : [
                0
            ]
        }
    ],
    "nodes" : [
        {
            "mesh" : 0,
            "name" : "Cube"
        }
    ],
    "meshes" : [
        {
            "name" : "Cube",
            "primitives" : [
                {
                    "attributes" : {
                        "POSITION" : 0,
                        "NORMAL" : 1,
                        "TANGENT" : 2,
                        "TEXCOORD_0" : 3
                    },
                    "indices" : 4
                }
            ]
        }
    ],
    "accessors" : [
        {
            "bufferView" : 0,
            "componentType" : 5126,
            "count" : 24960,
            "max" : [
                165.97625732421875,
                1.0000057220458984,
                260.09332275390625
            ],
            "min" : [
                -16.000001907348633,
                -1.0000052452087402,
                -261.15582275390625
            ],
            "type" : "VEC3"
        },
        {
            "bufferView" : 1,
            "componentType" : 5126,
            "count" : 24960,
            "type" : "VEC3"
        },
        {
            "bufferView" : 2,
            "componentType" : 5126,
            "count" : 24960,
            "type" : "VEC4"
        },
        {
            "bufferView" : 3,
            "componentType" : 5126,
            "count" : 24960,
            "type" : "VEC2"
        },
        {
            "bufferView" : 4,
            "componentType" : 5123,
            "count" : 37440,
            "type" : "SCALAR"
        }
    ],
    "bufferViews" : [
        {
            "buffer" : 0,
            "byteLength" : 299520,
            "byteOffset" : 0
        },
        {
            "buffer" : 0,
            "byteLength" : 299520,
            "byteOffset" : 299520
        },
        {
            "buffer" : 0,
            "byteLength" : 399360,
            "byteOffset" : 599040
        },
        {
            "buffer" : 0,
            "byteLength" : 199680,
            "byteOffset" : 998400
        },
        {
            "buffer" : 0,
            "byteLength" : 74880,
            "byteOffset" : 1198080
        }
    ],
    "buffers" : [
        {
            "byteLength" : 1272960,
            "uri" : "data:application/octet-stream;base64,"
        }
    ]
}
