{
    "asset" : {
        "copyright" : "matthall",
        "generator" : "Khronos glTF Blender I/O v1.0.5",
        "version" : "2.0"
    },
    "scene" : 0,
    "scenes" : [
        {
            "name" : "Scene",
            "nodes" : [
                0
            ]
        }
    ],
    "nodes" : [
        {
            "mesh" : 0,
            "name" : "Cylinder"
        }
    ],
    "materials" : [
        {
            "doubleSided" : true,
            "name" : "Material.002",
            "pbrMetallicRoughness" : {
                "baseColorTexture" : {
                    "index" : 0,
                    "texCoord" : 0
                },
                "metallicRoughnessTexture" : {
                    "index" : 1,
                    "texCoord" : 0
                },
                "roughnessFactor" : 0.5
            }
        }
    ],
    "meshes" : [
        {
            "name" : "meshId0_name",
            "primitives" : [
                {
                    "attributes" : {
                        "POSITION" : 0,
                        "NORMAL" : 1,
                        "TEXCOORD_0" : 2
                    },
                    "indices" : 3,
                    "material" : 0
                }
            ]
        }
    ],
    "textures" : [
        {
            "source" : 0
        },
        {
            "source" : 1
        }
    ],
    "images" : [
        {
            "bufferView" : 4,
            "mimeType" : "image/jpeg",
            "name" : "Material_albedo"
        },
        {
            "bufferView" : 5,
            "mimeType" : "image/jpeg",
            "name" : "Material_metallic"
        }
    ],
    "accessors" : [
        {
            "bufferView" : 0,
            "componentType" : 5126,
            "count" : 10287,
            "max" : [
                1.1920549869537354,
                1.1112029552459717,
                1.7421330213546753
            ],
            "min" : [
                -1.1927599906921387,
                -0.322721004486084,
                -1.5025160312652588
            ],
            "type" : "VEC3"
        },
        {
            "bufferView" : 1,
            "componentType" : 5126,
            "count" : 10287,
            "type" : "VEC3"
        },
        {
            "bufferView" : 2,
            "componentType" : 5126,
            "count" : 10287,
            "type" : "VEC2"
        },
        {
            "bufferView" : 3,
            "componentType" : 5123,
            "count" : 28113,
            "type" : "SCALAR"
        }
    ],
    "bufferViews" : [
        {
            "buffer" : 0,
            "byteLength" : 123444,
            "byteOffset" : 0
        },
        {
            "buffer" : 0,
            "byteLength" : 123444,
            "byteOffset" : 123444
        },
        {
            "buffer" : 0,
            "byteLength" : 82296,
            "byteOffset" : 246888
        },
        {
            "buffer" : 0,
            "byteLength" : 56226,
            "byteOffset" : 329184
        },
        {
            "buffer" : 0,
            "byteLength" : 779720,
            "byteOffset" : 385412
        },
        {
            "buffer" : 0,
            "byteLength" : 411552,
            "byteOffset" : 1165132
        }
    ],
    "buffers" : [
        {
            "byteLength" : 1576684,
            "uri" : "data:application/octet-stream;base64,"
        }
    ]
}
