{
    "asset" : {
        "copyright" : "Zainal Abd. Kahar",
        "generator" : "Khronos glTF Blender I/O v1.0.5",
        "version" : "2.0"
    },
    "scene" : 0,
    "scenes" : [
        {
            "name" : "Scene",
            "nodes" : [
                0
            ]
        }
    ],
    "nodes" : [
        {
            "mesh" : 0,
            "name" : "Cube"
        }
    ],
    "materials" : [
        {
            "doubleSided" : true,
            "name" : "Material.001",
            "pbrMetallicRoughness" : {
                "baseColorTexture" : {
                    "index" : 0,
                    "texCoord" : 0
                },
                "metallicFactor" : 0,
                "roughnessFactor" : 0.4000000059604645
            }
        }
    ],
    "meshes" : [
        {
            "name" : "Cube.001",
            "primitives" : [
                {
                    "attributes" : {
                        "POSITION" : 0,
                        "NORMAL" : 1,
                        "TEXCOORD_0" : 2
                    },
                    "indices" : 3,
                    "material" : 0
                }
            ]
        }
    ],
    "textures" : [
        {
            "source" : 0
        }
    ],
    "images" : [
        {
            "bufferView" : 4,
            "mimeType" : "image/png",
            "name" : "color"
        }
    ],
    "accessors" : [
        {
            "bufferView" : 0,
            "componentType" : 5126,
            "count" : 9216,
            "max" : [
                1.0895822048187256,
                1.0895823240280151,
                1.089582085609436
            ],
            "min" : [
                -1.0895822048187256,
                -1.0896258354187012,
                -1.0895823240280151
            ],
            "type" : "VEC3"
        },
        {
            "bufferView" : 1,
            "componentType" : 5126,
            "count" : 9216,
            "type" : "VEC3"
        },
        {
            "bufferView" : 2,
            "componentType" : 5126,
            "count" : 9216,
            "type" : "VEC2"
        },
        {
            "bufferView" : 3,
            "componentType" : 5123,
            "count" : 16404,
            "type" : "SCALAR"
        }
    ],
    "bufferViews" : [
        {
            "buffer" : 0,
            "byteLength" : 110592,
            "byteOffset" : 0
        },
        {
            "buffer" : 0,
            "byteLength" : 110592,
            "byteOffset" : 110592
        },
        {
            "buffer" : 0,
            "byteLength" : 73728,
            "byteOffset" : 221184
        },
        {
            "buffer" : 0,
            "byteLength" : 32808,
            "byteOffset" : 294912
        },
        {
            "buffer" : 0,
            "byteLength" : 84921,
            "byteOffset" : 327720
        }
    ],
    "buffers" : [
        {
            "byteLength" : 412644,
            "uri" : "data:application/octet-stream;base64,"
        }
    ]
}
